<?xml version="1.0" encoding="UTF-8" standalone="no"?>
<svg
   xmlns:dc="http://purl.org/dc/elements/1.1/"
   xmlns:cc="http://creativecommons.org/ns#"
   xmlns:rdf="http://www.w3.org/1999/02/22-rdf-syntax-ns#"
   xmlns:svg="http://www.w3.org/2000/svg"
   xmlns="http://www.w3.org/2000/svg"
   xmlns:sodipodi="http://sodipodi.sourceforge.net/DTD/sodipodi-0.dtd"
   xmlns:inkscape="http://www.inkscape.org/namespaces/inkscape"
   version="1.1"
   height="1080"
   width="1920"
   id="svg-element"
   sodipodi:docname="index-header-bg.svg"
   inkscape:version="1.0.1 (c497b03c, 2020-09-10)">
  <sodipodi:namedview
     pagecolor="#ffffff"
     bordercolor="#666666"
     borderopacity="1"
     objecttolerance="10"
     gridtolerance="10"
     guidetolerance="10"
     inkscape:pageopacity="0"
     inkscape:pageshadow="2"
     inkscape:window-width="1504"
     inkscape:window-height="733"
     id="namedview862"
     showgrid="false"
     inkscape:zoom="0.31723122"
     inkscape:cx="960"
     inkscape:cy="540"
     inkscape:window-x="0"
     inkscape:window-y="23"
     inkscape:window-maximized="0"
     inkscape:current-layer="svg-element"
     inkscape:document-rotation="0" />
  <metadata
     id="metadata681">
    <rdf:RDF>
      <cc:Work
         rdf:about="">
        <dc:format>image/svg+xml</dc:format>
        <dc:type
           rdf:resource="http://purl.org/dc/dcmitype/StillImage" />
        <dc:title />
      </cc:Work>
    </rdf:RDF>
  </metadata>
  <defs
     id="defs679" />
  <path
     id="path2"
     shape-rendering="crispEdges"
     fill="#65a8d3"
     d="M 981.7,554.4 912.5,536.7 911,734 Z" />
  <path
     id="path4"
     shape-rendering="crispEdges"
     fill="#59a0ce"
     d="m 911,734 68.4,-8.9 2.3,-170.7 z" />
  <path
     id="path6"
     shape-rendering="crispEdges"
     fill="#64a6d1"
     d="M 912.5,536.7 773.3,735.9 911,734 Z" />
  <path
     id="path8"
     shape-rendering="crispEdges"
     fill="#5f9ccb"
     d="M 773.3,735.9 845.9,810 911,734 Z" />
  <path
     id="path10"
     shape-rendering="crispEdges"
     fill="#4e93c7"
     d="M 911,734 1058.5,840.2 979.4,725.1 Z" />
  <path
     id="path12"
     shape-rendering="crispEdges"
     fill="#73b0d6"
     d="M 912.5,536.7 744,543.1 773.3,735.9 Z" />
  <path
     id="path14"
     shape-rendering="crispEdges"
     fill="#4790c6"
     d="m 1058.5,840.2 99,-147.1 -178.1,32 z" />
  <path
     id="path16"
     shape-rendering="crispEdges"
     fill="#549dcc"
     d="m 979.4,725.1 178.1,-32 -175.8,-138.7 z" />
  <path
     id="path18"
     shape-rendering="crispEdges"
     fill="#78b4d9"
     d="m 981.7,554.4 -99.6,-156 30.4,138.3 z" />
  <path
     id="path20"
     shape-rendering="crispEdges"
     fill="#81b9db"
     d="M 912.5,536.7 882.1,398.4 744,543.1 Z" />
  <path
     id="path22"
     shape-rendering="crispEdges"
     fill="#80b9da"
     d="m 1042.9,341.4 -160.8,57 99.6,156 z" />
  <path
     id="path24"
     shape-rendering="crispEdges"
     fill="#5092c7"
     d="M 845.9,810 1058.5,840.2 911,734 Z" />
  <path
     id="path26"
     shape-rendering="crispEdges"
     fill="#579fce"
     d="M 1157.5,693.1 1171,557.7 981.7,554.4 Z" />
  <path
     id="path28"
     shape-rendering="crispEdges"
     fill="#3f89c2"
     d="m 1058.5,840.2 97.2,-36.5 1.8,-110.6 z" />
  <path
     id="path30"
     shape-rendering="crispEdges"
     fill="#4b95c8"
     d="M 1334.2,733.7 1297.1,510.3 1171,557.7 Z" />
  <path
     id="path32"
     shape-rendering="crispEdges"
     fill="#6198ca"
     d="M 773.3,735.9 749.7,880.6 845.9,810 Z" />
  <path
     id="path34"
     shape-rendering="crispEdges"
     fill="#4887c0"
     d="m 845.9,810 147,145.7 65.6,-115.5 z" />
  <path
     id="path36"
     shape-rendering="crispEdges"
     fill="#6d9ecc"
     d="m 539.8,800.5 209.9,80.1 23.6,-144.7 z" />
  <path
     id="path38"
     shape-rendering="crispEdges"
     fill="#90c2de"
     d="m 882.1,398.4 -146,-6.2 7.9,150.9 z" />
  <path
     id="path40"
     shape-rendering="crispEdges"
     fill="#7ab1d6"
     d="M 744,543.1 572.6,661.5 773.3,735.9 Z" />
  <path
     id="path42"
     shape-rendering="crispEdges"
     fill="#6eadd5"
     d="m 1171,557.7 -128.1,-216.3 -61.2,213 z" />
  <path
     id="path44"
     shape-rendering="crispEdges"
     fill="#a0c9e3"
     d="M 882.1,398.4 838,202.6 736.1,392.2 Z" />
  <path
     id="path46"
     shape-rendering="crispEdges"
     fill="#4c84bd"
     d="m 922.9,973.9 70,-18.2 -147,-145.7 z" />
  <path
     id="path48"
     shape-rendering="crispEdges"
     fill="#367dba"
     d="m 1058.5,840.2 179,118.6 -81.8,-155.1 z" />
  <path
     id="path50"
     shape-rendering="crispEdges"
     fill="#90c1de"
     d="M 736.1,392.2 600.4,555.5 744,543.1 Z" />
  <path
     id="path52"
     shape-rendering="crispEdges"
     fill="#578cc1"
     d="M 749.7,880.6 922.9,973.9 845.9,810 Z" />
  <path
     id="path54"
     shape-rendering="crispEdges"
     fill="#87badb"
     d="M 600.4,555.5 572.6,661.5 744,543.1 Z" />
  <path
     id="path56"
     shape-rendering="crispEdges"
     fill="#4392c6"
     d="M 1334.2,733.7 1171,557.7 1157.5,693.1 Z" />
  <path
     id="path58"
     shape-rendering="crispEdges"
     fill="#75afd5"
     d="m 1171,557.7 64.9,-191 -193,-25.3 z" />
  <path
     id="path60"
     shape-rendering="crispEdges"
     fill="#6b95c6"
     d="m 539.8,800.5 150.3,154.1 59.6,-74 z" />
  <path
     id="path62"
     shape-rendering="crispEdges"
     fill="#5b88be"
     d="m 749.7,880.6 -59.6,74 232.8,19.3 z" />
  <path
     id="path64"
     shape-rendering="crispEdges"
     fill="#64a4cf"
     d="m 1297.1,510.3 -61.2,-143.6 -64.9,191 z" />
  <path
     id="path66"
     shape-rendering="crispEdges"
     fill="#88b7db"
     d="M 1235.9,366.7 1082,255 l -39.1,86.4 z" />
  <path
     id="path68"
     shape-rendering="crispEdges"
     fill="#98c4e1"
     d="M 1042.9,341.4 838,202.6 882.1,398.4 Z" />
  <path
     id="path70"
     shape-rendering="crispEdges"
     fill="#78a9d3"
     d="m 572.6,661.5 -32.8,139 233.5,-64.6 z" />
  <path
     id="path72"
     shape-rendering="crispEdges"
     fill="#327fbd"
     d="m 1307.3,829 26.9,-95.3 -178.5,70 z" />
  <path
     id="path74"
     shape-rendering="crispEdges"
     fill="#3a88c1"
     d="m 1155.7,803.7 178.5,-70 -176.7,-40.6 z" />
  <path
     id="path76"
     shape-rendering="crispEdges"
     fill="#2e78b7"
     d="M 1237.5,958.8 1307.3,829 1155.7,803.7 Z" />
  <path
     id="path78"
     shape-rendering="crispEdges"
     fill="#afd1e7"
     d="m 702.2,204.9 -96,136 129.9,51.3 z" />
  <path
     id="path80"
     shape-rendering="crispEdges"
     fill="#a0cae2"
     d="M 736.1,392.2 606.2,340.9 600.4,555.5 Z" />
  <path
     id="path82"
     shape-rendering="crispEdges"
     fill="#8ebcdd"
     d="m 600.4,555.5 -110.8,7.6 83,98.4 z" />
  <path
     id="path84"
     shape-rendering="crispEdges"
     fill="#84add6"
     d="m 572.6,661.5 -177.9,74.3 145.1,64.7 z" />
  <path
     id="path86"
     shape-rendering="crispEdges"
     fill="#9cc6e3"
     d="m 433.2,434.8 56.4,128.3 110.8,-7.6 z" />
  <path
     id="path88"
     shape-rendering="crispEdges"
     fill="#99c3e2"
     d="M 1082,255 838,202.6 1042.9,341.4 Z" />
  <path
     id="path90"
     shape-rendering="crispEdges"
     fill="#397ab7"
     d="m 992.9,955.7 244.6,3.1 -179,-118.6 z" />
  <path
     id="path92"
     shape-rendering="crispEdges"
     fill="#326aa4"
     d="M 1134.2,1166.9 1237.5,958.8 992.9,955.7 Z" />
  <path
     id="path94"
     shape-rendering="crispEdges"
     fill="#8bb8db"
     d="M 1235.9,366.7 1142.3,232.5 1082,255 Z" />
  <path
     id="path96"
     shape-rendering="crispEdges"
     fill="#adcfe8"
     d="m 1046.9,61.9 -216.7,83.7 7.8,57 z" />
  <path
     id="path98"
     shape-rendering="crispEdges"
     fill="#779acb"
     d="m 480.3,863.9 92.1,93.4 -32.6,-156.8 z" />
  <path
     id="path100"
     shape-rendering="crispEdges"
     fill="#6f94c6"
     d="m 539.8,800.5 32.6,156.8 117.7,-2.7 z" />
  <path
     id="path102"
     shape-rendering="crispEdges"
     fill="#577eb0"
     d="M 690.1,954.6 751.2,1113 922.9,973.9 Z" />
  <path
     id="path104"
     shape-rendering="crispEdges"
     fill="#6fa6d0"
     d="m 1297.1,510.3 22.5,-144.4 -83.7,0.8 z" />
  <path
     id="path106"
     shape-rendering="crispEdges"
     fill="#88b2d9"
     d="m 1235.9,366.7 130.7,-160.6 -224.3,26.4 z" />
  <path
     id="path108"
     shape-rendering="crispEdges"
     fill="#5e9bcb"
     d="M 1433.4,565.5 1319.6,365.9 1297.1,510.3 Z" />
  <path
     id="path110"
     shape-rendering="crispEdges"
     fill="#afd0e7"
     d="m 838,202.6 -135.8,2.3 33.9,187.3 z" />
  <path
     id="path112"
     shape-rendering="crispEdges"
     fill="#a2c8e4"
     d="M 1046.9,61.9 838,202.6 1082,255 Z" />
  <path
     id="path114"
     shape-rendering="crispEdges"
     fill="#b3d3e9"
     d="m 838,202.6 -7.8,-57 -128,59.3 z" />
  <path
     id="path116"
     shape-rendering="crispEdges"
     fill="#81a6d3"
     d="m 394.7,735.8 85.6,128.1 59.5,-63.4 z" />
  <path
     id="path118"
     shape-rendering="crispEdges"
     fill="#5f7ba7"
     d="M 579.5,1147.9 751.2,1113 690.1,954.6 Z" />
  <path
     id="path120"
     shape-rendering="crispEdges"
     fill="#4072a8"
     d="M 922.9,973.9 1004.3,1155 992.9,955.7 Z" />
  <path
     id="path122"
     shape-rendering="crispEdges"
     fill="#3a85c0"
     d="m 1503,648.9 -69.6,-83.4 -99.2,168.2 z" />
  <path
     id="path124"
     shape-rendering="crispEdges"
     fill="#468ec5"
     d="m 1334.2,733.7 99.2,-168.2 -136.3,-55.2 z" />
  <path
     id="path126"
     shape-rendering="crispEdges"
     fill="#c0dbec"
     d="m 741,37.7 -102.3,159.8 63.5,7.4 z" />
  <path
     id="path128"
     shape-rendering="crispEdges"
     fill="#bad6eb"
     d="m 702.2,204.9 -63.5,-7.4 -32.5,143.4 z" />
  <path
     id="path130"
     shape-rendering="crispEdges"
     fill="#a6cce4"
     d="m 606.2,340.9 -173,93.9 167.2,120.7 z" />
  <path
     id="path132"
     shape-rendering="crispEdges"
     fill="#436da0"
     d="M 852.4,1189.1 1004.3,1155 922.9,973.9 Z" />
  <path
     id="path134"
     shape-rendering="crispEdges"
     fill="#bbd6eb"
     d="m 406.8,259.4 26.4,175.4 173,-93.9 z" />
  <path
     id="path136"
     shape-rendering="crispEdges"
     fill="#8cb8dc"
     d="M 489.6,563.1 394.7,735.8 572.6,661.5 Z" />
  <path
     id="path138"
     shape-rendering="crispEdges"
     fill="#276db0"
     d="m 1237.5,958.8 91.1,21 -21.3,-150.8 z" />
  <path
     id="path140"
     shape-rendering="crispEdges"
     fill="#2978b8"
     d="m 1496.1,876.4 6.9,-227.5 -168.8,84.8 z" />
  <path
     id="path142"
     shape-rendering="crispEdges"
     fill="#225d9b"
     d="m 1353.3,1181.5 -24.7,-201.7 -91.1,-21 z" />
  <path
     id="path144"
     shape-rendering="crispEdges"
     fill="#91badd"
     d="m 300.6,679.7 94.1,56.1 94.9,-172.7 z" />
  <path
     id="path146"
     shape-rendering="crispEdges"
     fill="#91b9dc"
     d="m 1366.6,206.1 -226.3,-69.4 2,95.8 z" />
  <path
     id="path148"
     shape-rendering="crispEdges"
     fill="#96bedf"
     d="m 1142.3,232.5 -2,-95.8 L 1082,255 Z" />
  <path
     id="path150"
     shape-rendering="crispEdges"
     fill="#4d72a2"
     d="m 751.2,1113 101.2,76.1 70.5,-215.2 z" />
  <path
     id="path152"
     shape-rendering="crispEdges"
     fill="#32649b"
     d="m 1154.7,1259 -20.5,-92.1 -114.8,137.9 z" />
  <path
     id="path154"
     shape-rendering="crispEdges"
     fill="#38679c"
     d="m 1004.3,1155 129.9,11.9 -141.3,-211.2 z" />
  <path
     id="path156"
     shape-rendering="crispEdges"
     fill="#2675b7"
     d="M 1496.1,876.4 1334.2,733.7 1307.3,829 Z" />
  <path
     id="path158"
     shape-rendering="crispEdges"
     fill="#79a4d1"
     d="m 1521.9,397.8 -155.3,-191.7 -47,159.8 z" />
  <path
     id="path160"
     shape-rendering="crispEdges"
     fill="#7794c6"
     d="M 480.3,863.9 446.9,976.6 572.4,957.3 Z" />
  <path
     id="path162"
     shape-rendering="crispEdges"
     fill="#6784b3"
     d="m 572.4,957.3 7.1,190.6 110.6,-193.3 z" />
  <path
     id="path164"
     shape-rendering="crispEdges"
     fill="#4f73a2"
     d="m 745.4,1241.3 134.2,7.5 -27.2,-59.7 z" />
  <path
     id="path166"
     shape-rendering="crispEdges"
     fill="#7c96c7"
     d="m 296.9,966.6 150,10 33.4,-112.7 z" />
  <path
     id="path168"
     shape-rendering="crispEdges"
     fill="#9dc3e2"
     d="M 1140.3,136.7 1046.9,61.9 1082,255 Z" />
  <path
     id="path170"
     shape-rendering="crispEdges"
     fill="#bbd8eb"
     d="M 830.2,145.6 741,37.7 702.2,204.9 Z" />
  <path
     id="path172"
     shape-rendering="crispEdges"
     fill="#5475a3"
     d="m 745.4,1241.3 107,-52.2 -101.2,-76.1 z" />
  <path
     id="path174"
     shape-rendering="crispEdges"
     fill="#456ea0"
     d="m 852.4,1189.1 27.2,59.7 124.7,-93.8 z" />
  <path
     id="path176"
     shape-rendering="crispEdges"
     fill="#6299ca"
     d="m 1521.9,397.8 -202.3,-31.9 113.8,199.6 z" />
  <path
     id="path178"
     shape-rendering="crispEdges"
     fill="#7fabd5"
     d="m 1319.6,365.9 47,-159.8 -130.7,160.6 z" />
  <path
     id="path180"
     shape-rendering="crispEdges"
     fill="#adcde7"
     d="m 1171.1,-83.3 -191.1,-3 66.9,148.2 z" />
  <path
     id="path182"
     shape-rendering="crispEdges"
     fill="#6e85b4"
     d="m 446.9,976.6 132.6,171.3 -7.1,-190.6 z" />
  <path
     id="path184"
     shape-rendering="crispEdges"
     fill="#1761a8"
     d="m 1530.2,958.6 -34.1,-82.2 -167.5,103.4 z" />
  <path
     id="path186"
     shape-rendering="crispEdges"
     fill="#216baf"
     d="M 1328.6,979.8 1496.1,876.4 1307.3,829 Z" />
  <path
     id="path188"
     shape-rendering="crispEdges"
     fill="#9ac2e1"
     d="m 242.4,572.2 58.2,107.5 189,-116.6 z" />
  <path
     id="path190"
     shape-rendering="crispEdges"
     fill="#86a9d4"
     d="m 394.7,735.8 -140.4,63.9 226,64.2 z" />
  <path
     id="path192"
     shape-rendering="crispEdges"
     fill="#bfdaed"
     d="M 856.5,-47.6 741,37.7 830.2,145.6 Z" />
  <path
     id="path194"
     shape-rendering="crispEdges"
     fill="#c1d9ed"
     d="m 638.7,197.5 -231.9,61.9 199.4,81.5 z" />
  <path
     id="path196"
     shape-rendering="crispEdges"
     fill="#5d79a5"
     d="m 579.5,1147.9 165.9,93.4 5.8,-128.3 z" />
  <path
     id="path198"
     shape-rendering="crispEdges"
     fill="#cbdff1"
     d="M 487.4,108.2 406.8,259.4 638.7,197.5 Z" />
  <path
     id="path200"
     shape-rendering="crispEdges"
     fill="#a3c9e5"
     d="M 433.2,434.8 242.4,572.2 489.6,563.1 Z" />
  <path
     id="path202"
     shape-rendering="crispEdges"
     fill="#4889c1"
     d="m 1591.4,435.6 -158,129.9 69.6,83.4 z" />
  <path
     id="path204"
     shape-rendering="crispEdges"
     fill="#5a91c5"
     d="m 1591.4,435.6 -69.5,-37.8 -88.5,167.7 z" />
  <path
     id="path206"
     shape-rendering="crispEdges"
     fill="#bfd9ec"
     d="m 406.8,259.4 -70.4,94.9 96.8,80.5 z" />
  <path
     id="path208"
     shape-rendering="crispEdges"
     fill="#37679c"
     d="M 1019.4,1304.8 1134.2,1166.9 1004.3,1155 Z" />
  <path
     id="path210"
     shape-rendering="crispEdges"
     fill="#265c96"
     d="m 1134.2,1166.9 219.1,14.6 -115.8,-222.7 z" />
  <path
     id="path212"
     shape-rendering="crispEdges"
     fill="#5073a2"
     d="m 555.8,1323.6 463.6,-18.8 -139.8,-56 z" />
  <path
     id="path214"
     shape-rendering="crispEdges"
     fill="#3e6b9f"
     d="m 879.6,1248.8 139.8,56 -15.1,-149.8 z" />
  <path
     id="path216"
     shape-rendering="crispEdges"
     fill="#c8dfef"
     d="M 741,37.7 603.3,36.8 638.7,197.5 Z" />
  <path
     id="path218"
     shape-rendering="crispEdges"
     fill="#cce1f1"
     d="m 603.3,36.8 -115.9,71.4 151.3,89.3 z" />
  <path
     id="path220"
     shape-rendering="crispEdges"
     fill="#c8def0"
     d="m 406.8,259.4 -110.9,26.4 40.5,68.5 z" />
  <path
     id="path222"
     shape-rendering="crispEdges"
     fill="#b1d2e8"
     d="m 336.4,354.3 -94,217.9 190.8,-137.4 z" />
  <path
     id="path224"
     shape-rendering="crispEdges"
     fill="#8eb3d9"
     d="m 300.6,679.7 -46.3,120 140.4,-63.9 z" />
  <path
     id="path226"
     shape-rendering="crispEdges"
     fill="#b5d4eb"
     d="M 980,-86.3 856.5,-47.6 1046.9,61.9 Z" />
  <path
     id="path228"
     shape-rendering="crispEdges"
     fill="#b4d4ea"
     d="M 1046.9,61.9 856.5,-47.6 830.2,145.6 Z" />
  <path
     id="path230"
     shape-rendering="crispEdges"
     fill="#cce3f0"
     d="M 741,37.7 739.7,-42.4 603.3,36.8 Z" />
  <path
     id="path232"
     shape-rendering="crispEdges"
     fill="#15579b"
     d="m 1533.9,1085.6 -3.7,-127 -201.6,21.2 z" />
  <path
     id="path234"
     shape-rendering="crispEdges"
     fill="#216cb1"
     d="m 1496.1,876.4 137,-35.9 L 1503,648.9 Z" />
  <path
     id="path236"
     shape-rendering="crispEdges"
     fill="#94b8dc"
     d="m 161.3,677.4 93,122.3 46.3,-120 z" />
  <path
     id="path238"
     shape-rendering="crispEdges"
     fill="#6f80ab"
     d="m 446.9,976.6 -50.9,147.1 183.5,24.2 z" />
  <path
     id="path240"
     shape-rendering="crispEdges"
     fill="#285e97"
     d="m 1154.7,1259 198.6,-77.5 -219.1,-14.6 z" />
  <path
     id="path242"
     shape-rendering="crispEdges"
     fill="#4a85be"
     d="M 1673.8,503.8 1591.4,435.6 1503,648.9 Z" />
  <path
     id="path244"
     shape-rendering="crispEdges"
     fill="#80a3d1"
     d="m 1521.9,397.8 -46.1,-213.5 -109.2,21.8 z" />
  <path
     id="path246"
     shape-rendering="crispEdges"
     fill="#c6dfef"
     d="m 856.5,-47.6 -116.8,5.2 1.3,80.1 z" />
  <path
     id="path248"
     shape-rendering="crispEdges"
     fill="#83a0ce"
     d="M 254.3,799.7 296.9,966.6 480.3,863.9 Z" />
  <path
     id="path250"
     shape-rendering="crispEdges"
     fill="#7d9ccc"
     d="m 1681.2,188.6 -205.4,-4.3 46.1,213.5 z" />
  <path
     id="path252"
     shape-rendering="crispEdges"
     fill="#93b7db"
     d="m 1366.6,206.1 9.6,-149.6 -235.9,80.2 z" />
  <path
     id="path254"
     shape-rendering="crispEdges"
     fill="#d4e4f4"
     d="m 284.7,41.8 11.2,244 110.9,-26.4 z" />
  <path
     id="path256"
     shape-rendering="crispEdges"
     fill="#b2d2e9"
     d="m 336.4,354.3 -147.5,147.5 53.5,70.4 z" />
  <path
     id="path258"
     shape-rendering="crispEdges"
     fill="#788bb8"
     d="M 296.9,966.6 396,1123.7 446.9,976.6 Z" />
  <path
     id="path260"
     shape-rendering="crispEdges"
     fill="#627ba7"
     d="m 579.5,1147.9 -23.7,175.7 189.6,-82.3 z" />
  <path
     id="path262"
     shape-rendering="crispEdges"
     fill="#a6c8e4"
     d="m 1171.1,-83.3 -124.2,145.2 93.4,74.8 z" />
  <path
     id="path264"
     shape-rendering="crispEdges"
     fill="#d2e5f3"
     d="M 574.6,-159.5 601.4,-96.8 719,-236.2 Z" />
  <path
     id="path266"
     shape-rendering="crispEdges"
     fill="#8dadd7"
     d="m 1475.8,184.3 -99.6,-127.8 -9.6,149.6 z" />
  <path
     id="path268"
     shape-rendering="crispEdges"
     fill="#0e56a0"
     d="m 1671.8,1011.5 -38.7,-171 -102.9,118.1 z" />
  <path
     id="path270"
     shape-rendering="crispEdges"
     fill="#1660a7"
     d="m 1530.2,958.6 102.9,-118.1 -137,35.9 z" />
  <path
     id="path272"
     shape-rendering="crispEdges"
     fill="#2870b2"
     d="M 1633.1,840.5 1666.4,683.7 1503,648.9 Z" />
  <path
     id="path274"
     shape-rendering="crispEdges"
     fill="#bedaec"
     d="M 115.7,389.7 188.9,501.8 336.4,354.3 Z" />
  <path
     id="path276"
     shape-rendering="crispEdges"
     fill="#9bc1e1"
     d="m 242.4,572.2 -81.1,105.2 139.3,2.3 z" />
  <path
     id="path278"
     shape-rendering="crispEdges"
     fill="#9cbddf"
     d="m 1376.2,56.5 -92.1,-84.9 -143.8,165.1 z" />
  <path
     id="path280"
     shape-rendering="crispEdges"
     fill="#195290"
     d="m 1353.3,1181.5 180.6,-95.9 -205.3,-105.8 z" />
  <path
     id="path282"
     shape-rendering="crispEdges"
     fill="#a4c5e2"
     d="m 1284.1,-28.4 -113,-54.9 -30.8,220 z" />
  <path
     id="path284"
     shape-rendering="crispEdges"
     fill="#3a7bb8"
     d="M 1666.4,683.7 1673.8,503.8 1503,648.9 Z" />
  <path
     id="path286"
     shape-rendering="crispEdges"
     fill="#8aa4d0"
     d="M 1689,138 1494.1,47.1 1475.8,184.3 Z" />
  <path
     id="path288"
     shape-rendering="crispEdges"
     fill="#a5c9e5"
     d="M 188.9,501.8 161.3,677.4 242.4,572.2 Z" />
  <path
     id="path290"
     shape-rendering="crispEdges"
     fill="#859ccb"
     d="M 254.3,799.7 177,1016.9 296.9,966.6 Z" />
  <path
     id="path292"
     shape-rendering="crispEdges"
     fill="#2e6199"
     d="m 1019.4,1304.8 263.8,15.4 -128.5,-61.2 z" />
  <path
     id="path294"
     shape-rendering="crispEdges"
     fill="#245b95"
     d="m 1154.7,1259 128.5,61.2 70.1,-138.7 z" />
  <path
     id="path296"
     shape-rendering="crispEdges"
     fill="#164f8f"
     d="m 1353.3,1181.5 78.9,112.2 101.7,-208.1 z" />
  <path
     id="path298"
     shape-rendering="crispEdges"
     fill="#6b7faa"
     d="m 430.5,1290.5 125.3,33.1 23.7,-175.7 z" />
  <path
     id="path300"
     shape-rendering="crispEdges"
     fill="#5978a4"
     d="m 745.4,1241.3 -189.6,82.3 323.8,-74.8 z" />
  <path
     id="path302"
     shape-rendering="crispEdges"
     fill="#406c9f"
     d="m 1019.4,1304.8 -463.6,18.8 727.4,-3.4 z" />
  <path
     id="path304"
     shape-rendering="crispEdges"
     fill="#7786b0"
     d="m 296.9,966.6 -6.8,153.4 105.9,3.7 z" />
  <path
     id="path306"
     shape-rendering="crispEdges"
     fill="#6f80ab"
     d="m 396,1123.7 34.5,166.8 149,-142.6 z" />
  <path
     id="path308"
     shape-rendering="crispEdges"
     fill="#7d8db8"
     d="M 177,1016.9 290.1,1120 296.9,966.6 Z" />
  <path
     id="path310"
     shape-rendering="crispEdges"
     fill="#c6dfef"
     d="m 719,-236.2 20.7,193.8 116.8,-5.2 z" />
  <path
     id="path312"
     shape-rendering="crispEdges"
     fill="#d1e5f2"
     d="M 739.7,-42.4 601.4,-96.8 603.3,36.8 Z" />
  <path
     id="path314"
     shape-rendering="crispEdges"
     fill="#dbe9f6"
     d="m 603.3,36.8 -198.9,-98.3 83,169.7 z" />
  <path
     id="path316"
     shape-rendering="crispEdges"
     fill="#d6e6f4"
     d="M 487.4,108.2 284.7,41.8 406.8,259.4 Z" />
  <path
     id="path318"
     shape-rendering="crispEdges"
     fill="#b8d6eb"
     d="M 924.2,-211.8 856.5,-47.6 980,-86.3 Z" />
  <path
     id="path320"
     shape-rendering="crispEdges"
     fill="#90add7"
     d="m 1475.8,184.3 18.3,-137.2 -117.9,9.4 z" />
  <path
     id="path322"
     shape-rendering="crispEdges"
     fill="#9bb6dc"
     d="m 1376.2,56.5 142.3,-75.7 -234.4,-9.2 z" />
  <path
     id="path324"
     shape-rendering="crispEdges"
     fill="#a9c9e5"
     d="m 1192.3,-154.2 -161.5,-36.1 140.3,107 z" />
  <path
     id="path326"
     shape-rendering="crispEdges"
     fill="#6f94c6"
     d="m 1681.2,188.6 -159.3,209.2 69.5,37.8 z" />
  <path
     id="path328"
     shape-rendering="crispEdges"
     fill="#7483ad"
     d="M 311,1243.6 430.5,1290.5 396,1123.7 Z" />
  <path
     id="path330"
     shape-rendering="crispEdges"
     fill="#1d5592"
     d="m 1283.2,1320.2 149,-26.5 -78.9,-112.2 z" />
  <path
     id="path332"
     shape-rendering="crispEdges"
     fill="#a4c4e2"
     d="m 1192.3,-154.2 -21.2,70.9 113,54.9 z" />
  <path
     id="path334"
     shape-rendering="crispEdges"
     fill="#aecee7"
     d="m 1171.1,-83.3 -140.3,-107 -50.8,104 z" />
  <path
     id="path336"
     shape-rendering="crispEdges"
     fill="#a2c1e1"
     d="m 1296.4,-253.1 -104.1,98.9 91.8,125.8 z" />
  <path
     id="path338"
     shape-rendering="crispEdges"
     fill="#3e79b5"
     d="m 1666.4,683.7 87,-136 -79.6,-43.9 z" />
  <path
     id="path340"
     shape-rendering="crispEdges"
     fill="#5786bc"
     d="m 1673.8,503.8 85.9,-57.6 -168.3,-10.6 z" />
  <path
     id="path342"
     shape-rendering="crispEdges"
     fill="#3370ac"
     d="m 1813,668.5 -59.6,-120.8 -87,136 z" />
  <path
     id="path344"
     shape-rendering="crispEdges"
     fill="#1d64aa"
     d="m 1754.3,805.9 -87.9,-122.2 -33.3,156.8 z" />
  <path
     id="path346"
     shape-rendering="crispEdges"
     fill="#0d4588"
     d="m 1647,1121.1 24.8,-109.6 -137.9,74.1 z" />
  <path
     id="path348"
     shape-rendering="crispEdges"
     fill="#0f4e93"
     d="m 1533.9,1085.6 137.9,-74.1 -141.6,-52.9 z" />
  <path
     id="path350"
     shape-rendering="crispEdges"
     fill="#8ca4d0"
     d="M 80.5,841 177,1016.9 254.3,799.7 Z" />
  <path
     id="path352"
     shape-rendering="crispEdges"
     fill="#7684ae"
     d="m 290.1,1120 20.9,123.6 85,-119.9 z" />
  <path
     id="path354"
     shape-rendering="crispEdges"
     fill="#c7deef"
     d="M 295.9,285.8 115.7,389.7 336.4,354.3 Z" />
  <path
     id="path356"
     shape-rendering="crispEdges"
     fill="#accee8"
     d="M 188.9,501.8 -4.4,490.2 161.3,677.4 Z" />
  <path
     id="path358"
     shape-rendering="crispEdges"
     fill="#94b3da"
     d="M 161.3,677.4 80.5,841 254.3,799.7 Z" />
  <path
     id="path360"
     shape-rendering="crispEdges"
     fill="#d1e3f2"
     d="m 114.2,237 1.5,152.7 180.2,-103.9 z" />
  <path
     id="path362"
     shape-rendering="crispEdges"
     fill="#b3d3ea"
     d="M 1030.8,-190.3 924.2,-211.8 980,-86.3 Z" />
  <path
     id="path364"
     shape-rendering="crispEdges"
     fill="#12579f"
     d="m 1762.2,954 -7.9,-148.1 -121.2,34.6 z" />
  <path
     id="path366"
     shape-rendering="crispEdges"
     fill="#4b78ad"
     d="m 1892.1,509.2 -132.4,-63 -6.3,101.5 z" />
  <path
     id="path368"
     shape-rendering="crispEdges"
     fill="#4d7eb5"
     d="m 1753.4,547.7 6.3,-101.5 -85.9,57.6 z" />
  <path
     id="path370"
     shape-rendering="crispEdges"
     fill="#7a87af"
     d="M 141.2,1102 311,1243.6 290.1,1120 Z" />
  <path
     id="path372"
     shape-rendering="crispEdges"
     fill="#98b5db"
     d="M 3.2,820.8 80.5,841 161.3,677.4 Z" />
  <path
     id="path374"
     shape-rendering="crispEdges"
     fill="#cee3f1"
     d="M 719,-236.2 601.4,-96.8 739.7,-42.4 Z" />
  <path
     id="path376"
     shape-rendering="crispEdges"
     fill="#dae9f5"
     d="m 601.4,-96.8 -197,35.3 198.9,98.3 z" />
  <path
     id="path378"
     shape-rendering="crispEdges"
     fill="#dbe9f6"
     d="m 574.6,-159.5 -170.2,98 197,-35.3 z" />
  <path
     id="path380"
     shape-rendering="crispEdges"
     fill="#0e4587"
     d="m 1628.7,1307 18.3,-185.9 -113.1,-35.5 z" />
  <path
     id="path382"
     shape-rendering="crispEdges"
     fill="#09519c"
     d="M 1671.8,1011.5 1762.2,954 1633.1,840.5 Z" />
  <path
     id="path384"
     shape-rendering="crispEdges"
     fill="#e0ecf8"
     d="M 404.4,-61.5 284.7,41.8 487.4,108.2 Z" />
  <path
     id="path386"
     shape-rendering="crispEdges"
     fill="#7390c3"
     d="m 1774.8,284.4 -93.6,-95.8 -89.8,247 z" />
  <path
     id="path388"
     shape-rendering="crispEdges"
     fill="#90a7d2"
     d="M 1689,138 1518.5,-19.2 1494.1,47.1 Z" />
  <path
     id="path390"
     shape-rendering="crispEdges"
     fill="#96b0d8"
     d="m 1494.1,47.1 24.4,-66.3 -142.3,75.7 z" />
  <path
     id="path392"
     shape-rendering="crispEdges"
     fill="#205d9d"
     d="M 1897.4,788.3 1813,668.5 1754.3,805.9 Z" />
  <path
     id="path394"
     shape-rendering="crispEdges"
     fill="#2567a7"
     d="M 1754.3,805.9 1813,668.5 1666.4,683.7 Z" />
  <path
     id="path396"
     shape-rendering="crispEdges"
     fill="#c1dbed"
     d="M 924.2,-211.8 719,-236.2 856.5,-47.6 Z" />
  <path
     id="path398"
     shape-rendering="crispEdges"
     fill="#093f81"
     d="m 1818,1190.7 -55.8,-236.7 -90.4,57.5 z" />
  <path
     id="path400"
     shape-rendering="crispEdges"
     fill="#e6f0fa"
     d="m 404.4,-61.5 -108.9,50 -10.8,53.3 z" />
  <path
     id="path402"
     shape-rendering="crispEdges"
     fill="#dbe9f6"
     d="m 140.2,81.7 -26,155.3 181.7,48.8 z" />
  <path
     id="path404"
     shape-rendering="crispEdges"
     fill="#e6f0f9"
     d="m 313.2,-206.8 -17.7,195.3 108.9,-50 z" />
  <path
     id="path406"
     shape-rendering="crispEdges"
     fill="#dfebf7"
     d="m 453,-214 -48.6,152.5 170.2,-98 z" />
  <path
     id="path408"
     shape-rendering="crispEdges"
     fill="#deebf7"
     d="M 140.2,81.7 295.9,285.8 284.7,41.8 Z" />
  <path
     id="path410"
     shape-rendering="crispEdges"
     fill="#9fbedf"
     d="M -63.5,656.1 3.2,820.8 161.3,677.4 Z" />
  <path
     id="path412"
     shape-rendering="crispEdges"
     fill="#8692bb"
     d="M -47.4,969.3 141.2,1102 177,1016.9 Z" />
  <path
     id="path414"
     shape-rendering="crispEdges"
     fill="#7c88b0"
     d="m 177,1016.9 -35.8,85.1 148.9,18 z" />
  <path
     id="path416"
     shape-rendering="crispEdges"
     fill="#8398c7"
     d="m 1730.2,100.3 -41.2,37.7 -7.8,50.6 z" />
  <path
     id="path418"
     shape-rendering="crispEdges"
     fill="#839dcc"
     d="M 1681.2,188.6 1689,138 1475.8,184.3 Z" />
  <path
     id="path420"
     shape-rendering="crispEdges"
     fill="#648abc"
     d="m 1774.8,284.4 -183.4,151.2 168.3,10.6 z" />
  <path
     id="path422"
     shape-rendering="crispEdges"
     fill="#6280af"
     d="M 1988.1,393.5 1774.8,284.4 1759.7,446.2 Z" />
  <path
     id="path424"
     shape-rendering="crispEdges"
     fill="#bdd9ec"
     d="M -4.4,490.2 188.9,501.8 115.7,389.7 Z" />
  <path
     id="path426"
     shape-rendering="crispEdges"
     fill="#8e9fcc"
     d="M 80.5,841 -47.4,969.3 177,1016.9 Z" />
  <path
     id="path428"
     shape-rendering="crispEdges"
     fill="#c9e1ef"
     d="M -53.8,363.8 -4.4,490.2 115.7,389.7 Z" />
  <path
     id="path430"
     shape-rendering="crispEdges"
     fill="#ebf3fb"
     d="M 99.8,-27.9 140.2,81.7 284.7,41.8 Z" />
  <path
     id="path432"
     shape-rendering="crispEdges"
     fill="#d5e6f4"
     d="m 114.2,237 -86.9,53 88.4,99.7 z" />
  <path
     id="path434"
     shape-rendering="crispEdges"
     fill="#e1edf8"
     d="M -33.2,129.4 27.3,290 114.2,237 Z" />
  <path
     id="path436"
     shape-rendering="crispEdges"
     fill="#9ebadd"
     d="m 1475.7,-256.8 -179.3,3.7 -12.3,224.7 z" />
  <path
     id="path438"
     shape-rendering="crispEdges"
     fill="#a6c7e3"
     d="m 1192.3,-154.2 104.1,-98.9 -265.6,62.8 z" />
  <path
     id="path440"
     shape-rendering="crispEdges"
     fill="#accce6"
     d="m 1030.8,-190.3 265.6,-62.8 -372.2,41.3 z" />
  <path
     id="path442"
     shape-rendering="crispEdges"
     fill="#b3d3ea"
     d="m 924.2,-211.8 372.2,-41.3 -577.4,16.9 z" />
  <path
     id="path444"
     shape-rendering="crispEdges"
     fill="#9ab4db"
     d="m 1475.7,-256.8 -191.6,228.4 234.4,9.2 z" />
  <path
     id="path446"
     shape-rendering="crispEdges"
     fill="#7d93c2"
     d="m 1774.8,284.4 -44.6,-184.1 -49,88.3 z" />
  <path
     id="path448"
     shape-rendering="crispEdges"
     fill="#8ca0cd"
     d="m 1689,138 41.2,-37.7 -211.7,-119.5 z" />
  <path
     id="path450"
     shape-rendering="crispEdges"
     fill="#d6e7f4"
     d="m 719,-236.2 -266,22.2 121.6,54.5 z" />
  <path
     id="path452"
     shape-rendering="crispEdges"
     fill="#ebf3fb"
     d="M 295.5,-11.5 99.8,-27.9 284.7,41.8 Z" />
  <path
     id="path454"
     shape-rendering="crispEdges"
     fill="#124a8b"
     d="m 1432.2,1293.7 196.5,13.3 -94.8,-221.4 z" />
  <path
     id="path456"
     shape-rendering="crispEdges"
     fill="#093c7d"
     d="M 1894.4,1157.9 1916,936.5 1762.2,954 Z" />
  <path
     id="path458"
     shape-rendering="crispEdges"
     fill="#154f8f"
     d="m 1283.2,1320.2 345.5,-13.2 -196.5,-13.3 z" />
  <path
     id="path460"
     shape-rendering="crispEdges"
     fill="#31669f"
     d="M 1909.9,731.5 1892.1,509.2 1813,668.5 Z" />
  <path
     id="path462"
     shape-rendering="crispEdges"
     fill="#3c70a8"
     d="m 1813,668.5 79.1,-159.3 -138.7,38.5 z" />
  <path
     id="path464"
     shape-rendering="crispEdges"
     fill="#788bb8"
     d="M 1774.8,284.4 1936.1,250 1730.2,100.3 Z" />
  <path
     id="path466"
     shape-rendering="crispEdges"
     fill="#0e4d93"
     d="M 1916,936.5 1754.3,805.9 1762.2,954 Z" />
  <path
     id="path468"
     shape-rendering="crispEdges"
     fill="#135093"
     d="m 1916,936.5 -18.6,-148.2 -143.1,17.6 z" />
  <path
     id="path470"
     shape-rendering="crispEdges"
     fill="#abcbe6"
     d="m -4.4,490.2 -59.1,165.9 224.8,21.3 z" />
  <path
     id="path472"
     shape-rendering="crispEdges"
     fill="#b4d3ea"
     d="M -174.6,495 -63.5,656.1 -4.4,490.2 Z" />
  <path
     id="path474"
     shape-rendering="crispEdges"
     fill="#235c99"
     d="m 1897.4,788.3 12.5,-56.8 -96.9,-63 z" />
  <path
     id="path476"
     shape-rendering="crispEdges"
     fill="#dbe9f6"
     d="m -196.8,241.8 143,122 81.1,-73.8 z" />
  <path
     id="path478"
     shape-rendering="crispEdges"
     fill="#d2e5f2"
     d="m 27.3,290 -81.1,73.8 169.5,25.9 z" />
  <path
     id="path480"
     shape-rendering="crispEdges"
     fill="#96aad4"
     d="M -143.6,842.1 -47.4,969.3 3.2,820.8 Z" />
  <path
     id="path482"
     shape-rendering="crispEdges"
     fill="#95aad4"
     d="M 3.2,820.8 -47.4,969.3 80.5,841 Z" />
  <path
     id="path484"
     shape-rendering="crispEdges"
     fill="#7e89b0"
     d="M 141.2,1102 91.1,1317.3 311,1243.6 Z" />
  <path
     id="path486"
     shape-rendering="crispEdges"
     fill="#093e80"
     d="M 1818,1190.7 1671.8,1011.5 1647,1121.1 Z" />
  <path
     id="path488"
     shape-rendering="crispEdges"
     fill="#1a5391"
     d="m 1897.4,788.3 198.3,39.6 -185.8,-96.4 z" />
  <path
     id="path490"
     shape-rendering="crispEdges"
     fill="#e8f1fa"
     d="M 133.7,-260.5 313.2,-206.8 453,-214 Z" />
  <path
     id="path492"
     shape-rendering="crispEdges"
     fill="#e3eef9"
     d="m 453,-214 -139.8,7.2 91.2,145.3 z" />
  <path
     id="path494"
     shape-rendering="crispEdges"
     fill="#e5f0f9"
     d="M 140.2,81.7 -33.2,129.4 114.2,237 Z" />
  <path
     id="path496"
     shape-rendering="crispEdges"
     fill="#8f9dc7"
     d="m 1812.2,-17.4 -151.7,-90.8 69.7,208.5 z" />
  <path
     id="path498"
     shape-rendering="crispEdges"
     fill="#93a4d0"
     d="m 1730.2,100.3 -69.7,-208.5 -142,89 z" />
  <path
     id="path500"
     shape-rendering="crispEdges"
     fill="#96abd4"
     d="m 1660.5,-108.2 -184.8,-148.6 42.8,237.6 z" />
  <path
     id="path502"
     shape-rendering="crispEdges"
     fill="#093f81"
     d="M 1628.7,1307 1818,1190.7 1647,1121.1 Z" />
  <path
     id="path504"
     shape-rendering="crispEdges"
     fill="#ebf3fb"
     d="M 313.2,-206.8 99.8,-27.9 295.5,-11.5 Z" />
  <path
     id="path506"
     shape-rendering="crispEdges"
     fill="#838cb2"
     d="m -3.7,1255.3 94.8,62 50.1,-215.3 z" />
  <path
     id="path508"
     shape-rendering="crispEdges"
     fill="#7986af"
     d="m 311,1243.6 -219.9,73.7 339.4,-26.8 z" />
  <path
     id="path510"
     shape-rendering="crispEdges"
     fill="#7583ad"
     d="m 430.5,1290.5 -339.4,26.8 464.7,6.3 z" />
  <path
     id="path512"
     shape-rendering="crispEdges"
     fill="#a0bddf"
     d="M -63.5,656.1 -149.9,732 3.2,820.8 Z" />
  <path
     id="path514"
     shape-rendering="crispEdges"
     fill="#868eb3"
     d="m -47.4,969.3 6.1,194.7 182.5,-62 z" />
  <path
     id="path516"
     shape-rendering="crispEdges"
     fill="#aacae5"
     d="m -174.6,495 24.7,237 86.4,-75.9 z" />
  <path
     id="path518"
     shape-rendering="crispEdges"
     fill="#eef5fc"
     d="M 99.8,-27.9 -33.2,129.4 140.2,81.7 Z" />
  <path
     id="path520"
     shape-rendering="crispEdges"
     fill="#c4ddee"
     d="M -53.8,363.8 -174.6,495 -4.4,490.2 Z" />
  <path
     id="path522"
     shape-rendering="crispEdges"
     fill="#5377a7"
     d="m 1988.1,393.5 -228.4,52.7 132.4,63 z" />
  <path
     id="path524"
     shape-rendering="crispEdges"
     fill="#697fac"
     d="m 1988.1,393.5 -52,-143.5 -161.3,34.4 z" />
  <path
     id="path526"
     shape-rendering="crispEdges"
     fill="#4e72a2"
     d="m 1988.1,393.5 -96,115.7 152.7,-2.4 z" />
  <path
     id="path528"
     shape-rendering="crispEdges"
     fill="#9bb5db"
     d="m -149.9,732 6.3,110.1 146.8,-21.3 z" />
  <path
     id="path530"
     shape-rendering="crispEdges"
     fill="#39689d"
     d="m 2044.8,506.8 -152.7,2.4 17.8,222.3 z" />
  <path
     id="path532"
     shape-rendering="crispEdges"
     fill="#8a94bb"
     d="M -130,985.1 -41.3,1164 -47.4,969.3 Z" />
  <path
     id="path534"
     shape-rendering="crispEdges"
     fill="#083370"
     d="m 1907,1305.1 -12.6,-147.2 -76.4,32.8 z" />
  <path
     id="path536"
     shape-rendering="crispEdges"
     fill="#083674"
     d="m 1818,1190.7 76.4,-32.8 L 1762.2,954 Z" />
  <path
     id="path538"
     shape-rendering="crispEdges"
     fill="#2f6299"
     d="M 2132.5,683 2044.8,506.8 1909.9,731.5 Z" />
  <path
     id="path540"
     shape-rendering="crispEdges"
     fill="#8591ba"
     d="m 1975.9,85.3 -163.7,-102.7 -82,117.7 z" />
  <path
     id="path542"
     shape-rendering="crispEdges"
     fill="#95a8d3"
     d="m 1660.5,-108.2 -49.8,-148.3 -135,-0.3 z" />
  <path
     id="path544"
     shape-rendering="crispEdges"
     fill="#c8e0ef"
     d="m -210.3,421 35.7,74 120.8,-131.2 z" />
  <path
     id="path546"
     shape-rendering="crispEdges"
     fill="#94a7d2"
     d="m -149.9,732 -54.5,395.5 60.8,-285.4 z" />
  <path
     id="path548"
     shape-rendering="crispEdges"
     fill="#92a3cf"
     d="m -143.6,842.1 13.6,143 82.6,-15.8 z" />
  <path
     id="path550"
     shape-rendering="crispEdges"
     fill="#878eb3"
     d="M -115.5,1238 -3.7,1255.3 -41.3,1164 Z" />
  <path
     id="path552"
     shape-rendering="crispEdges"
     fill="#858db3"
     d="M -41.3,1164 -3.7,1255.3 141.2,1102 Z" />
  <path
     id="path554"
     shape-rendering="crispEdges"
     fill="#91a0cc"
     d="m 1801.3,-240.4 -190.6,-16.1 49.8,148.3 z" />
  <path
     id="path556"
     shape-rendering="crispEdges"
     fill="#667da8"
     d="m 1988.1,393.5 42.5,-56.4 -94.5,-87.1 z" />
  <path
     id="path558"
     shape-rendering="crispEdges"
     fill="#124b8b"
     d="M 2095.7,827.9 1897.4,788.3 1916,936.5 Z" />
  <path
     id="path560"
     shape-rendering="crispEdges"
     fill="#5978a4"
     d="m 2044.8,506.8 -14.2,-169.7 -42.5,56.4 z" />
  <path
     id="path562"
     shape-rendering="crispEdges"
     fill="#7b89b3"
     d="m 1936.1,250 39.8,-164.7 -245.7,15 z" />
  <path
     id="path564"
     shape-rendering="crispEdges"
     fill="#093b7b"
     d="m 1628.7,1307 209.5,23.8 -20.2,-140.1 z" />
  <path
     id="path566"
     shape-rendering="crispEdges"
     fill="#0f4688"
     d="m 1283.2,1320.2 555,10.6 -209.5,-23.8 z" />
  <path
     id="path568"
     shape-rendering="crispEdges"
     fill="#275d97"
     d="m 555.8,1323.6 1282.4,7.2 -555,-10.6 z" />
  <path
     id="path570"
     shape-rendering="crispEdges"
     fill="#d4e6f3"
     d="M -196.8,241.8 -210.3,421 -53.8,363.8 Z" />
  <path
     id="path572"
     shape-rendering="crispEdges"
     fill="#b3d3ea"
     d="m -174.6,495 -35.7,-74 60.4,311 z" />
  <path
     id="path574"
     shape-rendering="crispEdges"
     fill="#8e9bc6"
     d="m -143.6,842.1 -60.8,285.4 74.4,-142.4 z" />
  <path
     id="path576"
     shape-rendering="crispEdges"
     fill="#f2f8fd"
     d="m -42.9,-64.1 -66,159.2 75.7,34.3 z" />
  <path
     id="path578"
     shape-rendering="crispEdges"
     fill="#e3eef8"
     d="M -33.2,129.4 -196.8,241.8 27.3,290 Z" />
  <path
     id="path580"
     shape-rendering="crispEdges"
     fill="#f5fafe"
     d="m -42.9,-64.1 9.7,193.5 133,-157.3 z" />
  <path
     id="path582"
     shape-rendering="crispEdges"
     fill="#08306b"
     d="m 2123.1,1152 -65,-184.5 -163.7,190.4 z" />
  <path
     id="path584"
     shape-rendering="crispEdges"
     fill="#083775"
     d="M 1894.4,1157.9 2058.1,967.5 1916,936.5 Z" />
  <path
     id="path586"
     shape-rendering="crispEdges"
     fill="#7785ae"
     d="M 2083.2,195.2 1975.9,85.3 1936.1,250 Z" />
  <path
     id="path588"
     shape-rendering="crispEdges"
     fill="#8e9bc5"
     d="m 1812.2,-17.4 -10.9,-223 -140.8,132.2 z" />
  <path
     id="path590"
     shape-rendering="crispEdges"
     fill="#0d4486"
     d="M 2058.1,967.5 2095.7,827.9 1916,936.5 Z" />
  <path
     id="path592"
     shape-rendering="crispEdges"
     fill="#637ca7"
     d="m 2044.8,506.8 38.4,-311.6 -52.6,141.9 z" />
  <path
     id="path594"
     shape-rendering="crispEdges"
     fill="#e9f2fa"
     d="M -108.9,95.1 -196.8,241.8 -33.2,129.4 Z" />
  <path
     id="path596"
     shape-rendering="crispEdges"
     fill="#083471"
     d="m 1838.2,1330.8 68.8,-25.7 -89,-114.4 z" />
  <path
     id="path598"
     shape-rendering="crispEdges"
     fill="#f6faff"
     d="M -2.8,-256.9 -42.9,-64.1 99.8,-27.9 Z" />
  <path
     id="path600"
     shape-rendering="crispEdges"
     fill="#eef5fc"
     d="m -108.9,95.1 -108.6,-126.9 20.7,273.6 z" />
  <path
     id="path602"
     shape-rendering="crispEdges"
     fill="#eef5fc"
     d="M 313.2,-206.8 133.7,-260.5 99.8,-27.9 Z" />
  <path
     id="path604"
     shape-rendering="crispEdges"
     fill="#e1ecf8"
     d="M 719,-236.2 133.7,-260.5 453,-214 Z" />
  <path
     id="path606"
     shape-rendering="crispEdges"
     fill="#cce2f0"
     d="M 1296.4,-253.1 133.7,-260.5 719,-236.2 Z" />
  <path
     id="path608"
     shape-rendering="crispEdges"
     fill="#b4d3ea"
     d="m 1475.7,-256.8 -1342,-3.7 1162.7,7.4 z" />
  <path
     id="path610"
     shape-rendering="crispEdges"
     fill="#a4c4e2"
     d="m 2037.6,-264.6 -1903.9,4.1 1342,3.7 z" />
  <path
     id="path612"
     shape-rendering="crispEdges"
     fill="#878eb3"
     d="m -204.4,1127.5 88.9,110.5 74.2,-74 z" />
  <path
     id="path614"
     shape-rendering="crispEdges"
     fill="#878eb3"
     d="M -3.7,1255.3 -115.5,1238 91.1,1317.3 Z" />
  <path
     id="path616"
     shape-rendering="crispEdges"
     fill="#878eb3"
     d="M -204.4,1127.5 -41.3,1164 -130,985.1 Z" />
  <path
     id="path618"
     shape-rendering="crispEdges"
     fill="#205793"
     d="M 2095.7,827.9 2132.5,683 1909.9,731.5 Z" />
  <path
     id="path620"
     shape-rendering="crispEdges"
     fill="#6f80ac"
     d="M 2030.6,337.1 2083.2,195.2 1936.1,250 Z" />
  <path
     id="path622"
     shape-rendering="crispEdges"
     fill="#9ebadd"
     d="m -210.3,421 5.9,706.5 54.5,-395.5 z" />
  <path
     id="path624"
     shape-rendering="crispEdges"
     fill="#8993b9"
     d="m 1974.7,-50.5 -173.4,-189.9 10.9,223 z" />
  <path
     id="path626"
     shape-rendering="crispEdges"
     fill="#4f73a2"
     d="m 2132.5,683 -49.3,-487.8 -38.4,311.6 z" />
  <path
     id="path628"
     shape-rendering="crispEdges"
     fill="#868eb3"
     d="m 1975.9,85.3 -1.2,-135.8 -162.5,33.1 z" />
  <path
     id="path630"
     shape-rendering="crispEdges"
     fill="#848db2"
     d="m 2091.6,53.5 -116.9,-104 1.2,135.8 z" />
  <path
     id="path632"
     shape-rendering="crispEdges"
     fill="#f3f8fe"
     d="m 133.7,-260.5 -136.5,3.6 102.6,229 z" />
  <path
     id="path634"
     shape-rendering="crispEdges"
     fill="#f7fbff"
     d="m -42.9,-64.1 -174.6,32.3 108.6,126.9 z" />
  <path
     id="path636"
     shape-rendering="crispEdges"
     fill="#7d88b0"
     d="m 2083.2,195.2 8.4,-141.7 -115.7,31.8 z" />
  <path
     id="path638"
     shape-rendering="crispEdges"
     fill="#878eb3"
     d="m 1974.7,-50.5 13.4,-146.1 -186.8,-43.8 z" />
  <path
     id="path640"
     shape-rendering="crispEdges"
     fill="#828bb1"
     d="m 2133,-81.8 -41.4,135.3 -8.4,141.7 z" />
  <path
     id="path642"
     shape-rendering="crispEdges"
     fill="#08306b"
     d="m 1907,1305.1 216.1,-153.1 -228.7,5.9 z" />
  <path
     id="path644"
     shape-rendering="crispEdges"
     fill="#093c7c"
     d="m 2058.1,967.5 65,184.5 -27.4,-324.1 z" />
  <path
     id="path646"
     shape-rendering="crispEdges"
     fill="#0f4788"
     d="m 2095.7,827.9 27.4,324.1 9.4,-469 z" />
  <path
     id="path648"
     shape-rendering="crispEdges"
     fill="#f7fbff"
     d="m -159.1,-218.7 -58.4,186.9 174.6,-32.3 z" />
  <path
     id="path650"
     shape-rendering="crispEdges"
     fill="#e4eef9"
     d="m -196.8,241.8 -20.7,-273.6 7.2,452.8 z" />
  <path
     id="path652"
     shape-rendering="crispEdges"
     fill="#bad8ec"
     d="m -210.3,421 -7.2,-452.8 13.1,1159.3 z" />
  <path
     id="path654"
     shape-rendering="crispEdges"
     fill="#878eb3"
     d="m 2133,-81.8 -144.9,-114.8 -13.4,146.1 z" />
  <path
     id="path656"
     shape-rendering="crispEdges"
     fill="#f7fbff"
     d="m -2.8,-256.9 -156.3,38.2 116.2,154.6 z" />
  <path
     id="path658"
     shape-rendering="crispEdges"
     fill="#08306b"
     d="m 1838.2,1330.8 284.9,-7.1 -216.1,-18.6 z" />
  <path
     id="path660"
     shape-rendering="crispEdges"
     fill="#08306b"
     d="m 1907,1305.1 216.1,18.6 V 1152 Z" />
  <path
     id="path662"
     shape-rendering="crispEdges"
     fill="#083370"
     d="m 2123.1,1152 v 171.7 l 9.4,-640.7 z" />
  <path
     id="path664"
     shape-rendering="crispEdges"
     fill="#6f80ab"
     d="m 2132.5,683 0.5,-764.8 -49.8,277 z" />
  <path
     id="path666"
     shape-rendering="crispEdges"
     fill="#878eb3"
     d="M 2091.6,53.5 2133,-81.8 1974.7,-50.5 Z" />
  <path
     id="path668"
     shape-rendering="crispEdges"
     fill="#878eb3"
     d="m 2133,-81.8 -95.4,-182.8 -49.5,68 z" />
  <path
     id="path670"
     shape-rendering="crispEdges"
     fill="#878eb3"
     d="m 1988.1,-196.6 49.5,-68 -236.3,24.2 z" />
  <path
     id="path672"
     shape-rendering="crispEdges"
     fill="#8b96be"
     d="m 1801.3,-240.4 236.3,-24.2 -426.9,8.1 z" />
  <path
     id="path674"
     shape-rendering="crispEdges"
     fill="#909fca"
     d="m 1610.7,-256.5 426.9,-8.1 -561.9,7.8 z" />
</svg>
